<svg id="Capa_1" data-name="Capa 1" xmlns="http://www.w3.org/2000/svg" viewBox="0 0 20 20"><defs><style>.cls-1{fill:#393939;fill-rule:evenodd;}</style></defs><path class="cls-1" d="M13.59,11.48c-.19-.1-1.09-.59-1.26-.66s-.3-.11-.43.08-.51.59-.62.71-.23.13-.41,0a5.06,5.06,0,0,1-1.48-1,5.57,5.57,0,0,1-1-1.34c-.11-.19,0-.29.09-.38s.2-.21.3-.32a1.57,1.57,0,0,0,.2-.3A.35.35,0,0,0,9,8L8.46,6.56c-.15-.38-.31-.33-.42-.33l-.35,0a.66.66,0,0,0-.51.22A2.07,2.07,0,0,0,6.46,8a3.62,3.62,0,0,0,.69,2,7.66,7.66,0,0,0,3.11,3c1.88.82,1.89.57,2.24.55a1.9,1.9,0,0,0,1.3-.84,1.63,1.63,0,0,0,.14-.89c0-.08-.17-.13-.35-.23Zm-3.45,4.45a6.11,6.11,0,0,1-3.38-1l-2.35.75.76-2.27a6.14,6.14,0,1,1,5,2.53Zm0-13.49A7.36,7.36,0,0,0,3.83,13.61L2.5,17.56l4.08-1.31A7.36,7.36,0,1,0,10.14,2.44Z"/></svg>