<svg id="Capa_1" data-name="Capa 1" xmlns="http://www.w3.org/2000/svg" viewBox="0 0 20 20"><defs><style>.cls-1{fill:#393939;}</style></defs><path class="cls-1" d="M13.23,17.3H6.77A4.27,4.27,0,0,1,2.5,13V6.57A4.27,4.27,0,0,1,6.77,2.3h6.46A4.28,4.28,0,0,1,17.5,6.57V13A4.27,4.27,0,0,1,13.23,17.3ZM6.77,3.59a3,3,0,0,0-3,3V13a3,3,0,0,0,3,3h6.46a3,3,0,0,0,3-3V6.57a3,3,0,0,0-3-3Z"/><path class="cls-1" d="M10,13.64A3.84,3.84,0,1,1,13.84,9.8,3.84,3.84,0,0,1,10,13.64Zm0-6.39A2.56,2.56,0,1,0,12.56,9.8,2.55,2.55,0,0,0,10,7.25Z"/><path class="cls-1" d="M14.93,5.74A.93.93,0,1,1,14,4.82.93.93,0,0,1,14.93,5.74Z"/></svg>